<?xml version="1.0" encoding="UTF-8" standalone="no"?>
<!-- Created with Inkscape (http://www.inkscape.org/) -->

<svg
   xmlns:dc="http://purl.org/dc/elements/1.1/"
   xmlns:cc="http://creativecommons.org/ns#"
   xmlns:rdf="http://www.w3.org/1999/02/22-rdf-syntax-ns#"
   xmlns:svg="http://www.w3.org/2000/svg"
   xmlns="http://www.w3.org/2000/svg"
   version="1.1"
   width="109"
   height="51.908081"
   viewBox="0 0 109 51.908081"
   id="Ebene_1">
  <title
     id="title3">W3C Logo</title>
  <desc
     id="desc5">W3C® is a trademark (registered in numerous countries) of the World Wide Web Consortium; marks of W3C are registered and held by its host institutions MIT, ERCIM, and Keio. For more information see: http://www.w3.org/</desc>
  <metadata
     id="metadata19">
    <rdf:RDF>
      <cc:Work
         rdf:about="">
        <dc:format>image/svg+xml</dc:format>
        <dc:type
           rdf:resource="http://purl.org/dc/dcmitype/StillImage" />
        <dc:title>W3C Logo</dc:title>
      </cc:Work>
    </rdf:RDF>
  </metadata>
  <defs
     id="defs17" />
  <path
     d="M 25.805245,0.2894143 35.046321,31.706889 44.286306,0.2894143 H 69.338315 V 3.4124668 L 59.905388,19.663243 c 3.313812,1.062273 5.819891,2.996605 7.518764,5.799722 1.699964,2.804751 2.550763,6.095675 2.550763,9.876586 0,4.675313 -1.244314,8.604471 -3.730218,11.78966 -2.485913,3.185189 -5.703799,4.778871 -9.654217,4.778871 -2.974805,0 -5.565356,-0.944 -7.773295,-2.834731 -2.209573,-1.890726 -3.844679,-4.449665 -4.906408,-7.679547 l 5.224164,-2.166515 c 0.765231,1.954496 1.774636,3.494765 3.028216,4.619172 1.253035,1.126047 2.72954,1.689613 4.428414,1.689613 1.782809,0 3.29256,-0.998504 4.524339,-2.994426 1.232869,-1.997009 1.849303,-4.396255 1.849303,-7.202642 0,-3.101797 -0.658947,-5.502678 -1.974661,-7.201554 -1.532098,-1.995919 -3.932432,-2.995514 -7.203191,-2.995514 H 51.239868 V 22.083745 L 60.160464,6.6608768 H 49.39329 L 48.780667,7.7040758 35.682923,51.899906 H 35.045776 L 25.485855,19.911234 15.928114,51.899906 H 15.291513 L -1.6796875e-6,0.2872342 H 6.6908533 L 15.930839,31.704709 22.176945,10.54916 19.118751,0.2883243 h 6.68922 v -0.00216 z"
     id="path7"
     style="fill:#005a9c" />
  <path
     d="m 104.10939,0.2894143 c -1.31353,0 -2.49299,0.4736353 -3.3874,1.3816634 -0.948359,0.9636231 -1.476497,2.2079391 -1.476497,3.4947681 0,1.286828 0.502522,2.479366 1.423087,3.415192 0.93583,0.94836 2.1409,1.4639642 3.44136,1.4639642 1.27211,0 2.50717,-0.5150592 3.46697,-1.4487032 C 108.49748,7.7018958 109,6.5099028 109,5.1685708 c 0,-1.301 -0.51506,-2.519699 -1.40837,-3.4277286 -0.92656,-0.9510859 -2.14745,-1.4514279 -3.47733,-1.4514279 z m 4.24038,4.9183985 c 0,1.124953 -0.43548,2.168696 -1.23178,2.939376 -0.84099,0.814283 -1.88419,1.247586 -3.03585,1.247586 -1.08244,0 -2.15234,-0.445839 -2.95301,-1.259577 -0.79847,-0.814283 -1.246492,-1.85639 -1.246492,-2.966627 0,-1.111328 0.461102,-2.194857 1.286832,-3.033668 0.77177,-0.7864857 1.81388,-1.2050725 2.95191,-1.2050725 1.16583,0 2.20794,0.4354828 3.02114,1.2595765 0.7903,0.783762 1.20998,1.838404 1.20998,3.018406 z m -4.10412,-2.900134 h -2.0853 v 5.528295 h 1.04319 v -2.356732 h 1.03067 l 1.1244,2.356732 h 1.16475 l -1.23397,-2.518609 c 0.79848,-0.164055 1.26068,-0.704731 1.26068,-1.490127 0.005,-1.002865 -0.75761,-1.519559 -2.30006,-1.519559 z m -0.19076,0.678026 c 0.97507,0 1.42199,0.271427 1.42199,0.94836 0,0.649138 -0.44692,0.881322 -1.39692,0.881322 h -0.88132 v -1.829682 h 0.8557 z"
     id="path9" />
  <path
     d="m 95.906609,0 1.083529,6.5894778 -3.8365,7.3410822 c 0,0 -1.472139,-3.114878 -3.919354,-4.8371902 -2.060777,-1.451973 -3.404286,-1.768094 -5.504856,-1.334791 -2.697377,0.556481 -5.75612,3.7814552 -7.09091,7.7580342 -1.596959,4.756525 -1.612765,7.059844 -1.669448,9.174036 -0.08939,3.391755 0.444754,5.393671 0.444754,5.393671 0,0 -2.33003,-4.30905 -2.307683,-10.620561 0.01466,-4.506352 0.723806,-8.591938 2.808025,-12.6230202 1.834043,-3.54491 4.560314,-5.6727283 6.980269,-5.9228993 2.50171,-0.2578015 4.477464,0.9472715 6.006287,2.2515413 1.602948,1.371309 3.224435,4.365734 3.224435,4.365734 L 95.896798,0 z"
     id="path11" />
  <path
     d="m 96.380789,37.284782 c 0,0 -1.695603,3.032032 -2.751881,4.199498 -1.056822,1.1691 -2.947557,3.225521 -5.281941,4.255092 -2.334382,1.028481 -3.558536,1.220878 -5.866759,1.000684 -2.304959,-0.221284 -4.447491,-1.556074 -5.198004,-2.1131 -0.750513,-0.557031 -2.669587,-2.195951 -3.754751,-3.725864 -1.08571,-1.529914 -2.780768,-4.587018 -2.780768,-4.587018 0,0 0.944,3.064735 1.536998,4.365734 0.339557,0.749423 1.384934,3.039115 2.870154,5.031767 1.384939,1.858569 4.074141,5.059564 8.16082,5.782281 4.086674,0.723806 6.894694,-1.112417 7.590167,-1.556075 0.693829,-0.443658 2.158883,-1.671082 3.087078,-2.664681 0.967436,-1.033386 1.884185,-2.35455 2.389977,-3.146486 0.371714,-0.579377 0.975068,-1.752292 0.975068,-1.752292 l -0.975613,-5.085725 z"
     id="path13" />
</svg>
