<?xml version="1.0" encoding="UTF-8" standalone="no"?>
<!-- Created with Inkscape (http://www.inkscape.org/) -->

<svg
   xmlns:dc="http://purl.org/dc/elements/1.1/"
   xmlns:cc="http://creativecommons.org/ns#"
   xmlns:rdf="http://www.w3.org/1999/02/22-rdf-syntax-ns#"
   xmlns:svg="http://www.w3.org/2000/svg"
   xmlns="http://www.w3.org/2000/svg"
   version="1.1"
   width="109.48067"
   height="100"
   viewBox="0 0 109.48068 100"
   id="Layer_1"
   xml:space="preserve"><metadata
     id="metadata13"><rdf:RDF><cc:Work
         rdf:about=""><dc:format>image/svg+xml</dc:format><dc:type
           rdf:resource="http://purl.org/dc/dcmitype/StillImage" /><dc:title></dc:title></cc:Work></rdf:RDF></metadata><defs
     id="defs11" /><g
     transform="matrix(0.28307281,0,0,0.28307281,-2.1612609,-6.6598548)"
     id="g3"><path
       d="m 326.561,175.348 c 2.648,3.957 2.47,9.134 3.005,13.775 -0.179,9.833 0.685,21.54 -1.071,31.536 -0.893,4.15 -3.689,8.45 -8.092,10.012 -7.051,3.094 -16.572,2.231 -23.087,-1.383 -5.475,-3.794 -6.159,-10.16 -6.873,-16.2 -0.535,-11.9 -1.428,-24.47 1.935,-35.344 2.647,-6.709 9.877,-8.435 16.393,-8.955 6.871,-10e-4 13.565,1.04 17.79,6.559"
       id="path5"
       style="fill:#006bb6" /><path
       d="m 230.494,326.127 -1.22,1.041 c -18.356,3.957 -38.848,4.121 -57.212,-0.357 l 1.384,-1.547 c 16.133,-10.517 41.28,-10.517 57.048,0.863 m -62.076,-3.957 -3.474,2.752 c -14.578,-3.793 -28.1,-10.339 -40.595,-19.294 v -0.521 c 4.172,-2.588 8.338,-5.34 12.845,-7.229 9.885,9.803 20.119,17.226 31.224,24.292 m 109.945,-17.063 c -9.698,7.75 -20.975,12.927 -32.429,17.227 l -8.151,2.588 c -1.369,-0.699 -2.589,-1.711 -3.809,-2.752 l 0.328,-0.521 c 11.126,-6.546 21.182,-14.474 30.703,-23.95 4.701,1.905 9.193,4.478 13.358,7.408 m -18.535,-9.818 c -5.562,6.367 -12.674,11.887 -19.278,16.542 -3.986,2.41 -7.974,4.999 -12.139,7.066 l -7.468,-3.272 0.536,-1.205 c 6.247,-8.449 11.812,-17.062 16.661,-26.196 l 0.505,-0.356 c 7.468,1.724 14.579,4.15 21.183,7.421 m -95.396,-7.244 c 5.021,9.477 11.268,18.432 17.516,27.387 -2.439,1.398 -5.377,2.261 -7.817,3.629 -11.439,-5.682 -22.373,-13.611 -31.559,-23.087 v -0.521 c 6.761,-3.272 13.872,-5.683 21.153,-7.586 l 0.707,0.178 z m 68.502,-1.547 0.148,0.521 c -4.819,9.298 -10.918,18.253 -17.493,26.702 -2.945,0.342 -5.712,-0.863 -8.688,-1.041 l -2.916,-0.328 c -0.356,-10.175 -0.535,-19.145 0,-29.305 9.878,0.179 19.755,1.205 28.949,3.451 m -34.177,25.676 c -3.63,0.862 -7.624,0.862 -11.097,1.725 -7.118,-8.449 -13.009,-17.582 -18.037,-27.059 l 0.87,-0.699 c 9.015,-1.71 18.386,-3.094 28.1,-3.094 l 0.164,29.127 z m -36.416,-39.629 c -1.74,0 -3.645,-0.357 -4.857,0.164 l 4.336,10.159 -0.513,0.521 c -7.817,2.232 -15.448,4.999 -22.894,8.107 l -0.707,-0.356 c -4.857,-5.325 -9.536,-11.187 -13.358,-17.062 -0.848,-2.916 -4.321,-1.205 -6.225,-1.532 4.157,7.571 9.698,14.295 15.262,21.183 -4.693,2.767 -9.371,5.876 -14.229,8.107 -10.405,-7.929 -20.126,-18.268 -27.4,-29.126 -2.09,-0.343 -3.474,-0.164 -5.549,0 12.473,19.65 31.916,36.876 52.206,47.036 l 0.164,-0.163 0.186,0.52 c 13.693,6.709 28.256,11.544 43.697,13.611 53.239,7.066 104.055,-15.857 133.538,-61.004 -1.547,-0.164 -3.809,-0.164 -5.563,0 -7.26,10.517 -16.452,20.691 -26.508,28.605 l -1.727,-0.164 c -4.344,-2.752 -9.044,-5.013 -13.209,-7.75 5.563,-6.738 10.948,-13.447 15.113,-20.855 h -5.385 c -4.344,6.367 -8.866,13.076 -14.578,18.773 -7.646,-3.095 -14.578,-5.861 -22.373,-7.93 l -0.862,-0.684 c 1.22,-3.451 3.451,-6.724 4.165,-10.16 H 240.4 l -4.701,9.297 c -10.234,-2.246 -21.51,-3.451 -31.923,-4.135 -0.506,-1.547 0.208,-3.794 -0.506,-5.162 h -4.515 c -0.342,2.053 0.521,3.615 -0.506,5.325 -10.763,0.521 -21.168,1.726 -31.231,3.794 l -4.677,-9.119 z M 52.381,140.182 41.626,140.361 c -0.171,9.134 -0.171,19.814 0,29.111 5.905,0.193 11.454,0 17.181,0.521 v 58.61 l -0.186,2.395 -17.166,0.357 c -0.35,9.64 -0.35,18.951 0,28.427 h 76.482 v -28.427 c -5.727,-0.357 -12.138,0.163 -17.687,-0.521 l 0.171,-60.484 0.35,-0.521 17.166,-0.164 c 0.187,-9.833 0.35,-20.335 -0.163,-29.305 l -65.393,-0.178 z m 294.678,10.353 c -22.551,-14.474 -56.914,-15.515 -80.119,-2.425 -12.674,6.545 -21.005,19.487 -23.593,32.741 -4.701,21.896 -3.481,47.914 13.149,64.293 19.458,17.226 47.722,21.019 72.861,13.953 1.189,-0.238 4.998,-1.205 7.586,-2.604 l 0.744,-0.327 c 7.795,-3.272 15.263,-8.628 20.796,-15.857 12.853,-18.952 13.716,-47.394 5.891,-68.755 -3.094,-8.271 -9.52,-15.679 -17.315,-21.019 m -147.082,-5.518 c -19.085,-8.107 -45.787,-8.955 -63.132,3.614 -11.276,8.271 -14.749,23.087 -11.796,36.192 2.261,12.406 14.05,21.54 25.318,25.839 15.449,5.52 31.581,9.477 47.171,14.831 1.577,0.685 3.652,2.231 3.325,4.136 0,1.547 -1.584,2.41 -2.804,3.094 -16.296,4.478 -33.983,1.041 -45.772,-11.365 -1.383,-1.725 -2.253,-3.793 -3.651,-5.519 l -23.415,0.179 c -0.334,13.953 -0.521,29.975 0,43.764 l 26.018,-0.163 0.35,-8.286 c 2.953,1.398 5.898,3.109 8.851,4.671 18.036,7.572 41.287,9.282 59.138,0 13.001,-7.259 19.963,-21.212 18.029,-36.192 -1.904,-14.652 -15.769,-27.921 -29.811,-31.551 l -41.979,-12.228 -3.124,-1.562 c -1.383,-1.205 -2.253,-2.752 -1.919,-4.641 3.302,-5.683 10.941,-3.957 16.668,-3.793 12.138,1.725 24.611,5.861 31.722,17.062 7.646,0 16.482,0.164 24.812,-0.163 0.328,-14.147 -0.178,-26.553 -0.356,-40.863 -7.795,-0.164 -17.345,-0.164 -25.14,0.193 -0.357,2.067 0.327,4.983 -0.536,7.065 l -7.967,-4.314 z m 14.035,-58.596 c 6.783,8.613 13.358,17.404 17.881,26.88 -9.372,2.246 -18.893,3.436 -28.621,3.436 -0.357,-9.119 -0.179,-19.293 0,-28.77 3.48,-0.519 7.289,-1.04 10.74,-1.546 m -16.282,1.384 c 0.521,8.955 0.164,19.294 0.164,28.77 -4.864,0.685 -9.186,-0.164 -14.042,-0.521 -4.693,-0.685 -10.592,-1.205 -15.263,-2.752 5.028,-9.476 10.919,-18.609 18.029,-27.059 l 11.112,1.562 z m -16.838,-3.273 -0.514,1.368 c -6.597,8.271 -11.789,17.241 -17.003,26.032 l -0.684,0.164 c -7.11,-1.89 -14.057,-4.136 -20.64,-7.066 l 0.35,-1.042 c 9.536,-9.119 19.592,-16.705 30.696,-22.566 2.603,1.027 5.191,1.905 7.795,3.11 m 78.044,19.651 -0.326,0.506 c -6.783,2.931 -13.716,5.683 -21.184,7.244 -5.355,-9.148 -11.246,-18.267 -17.851,-27.059 2.439,-1.383 5.385,-2.425 7.974,-3.793 11.275,5.683 22.194,13.79 31.387,23.102 M 167.883,78.15 c -10.748,6.724 -21.324,14.652 -31.038,24.292 -4.679,-1.726 -9.022,-4.299 -13.18,-7.244 V 94.87 c 10.926,-8.107 23.064,-14.132 35.902,-18.282 l 1.554,-1.012 v 0.327 c 1.383,0.357 2.44,-1.205 3.645,-0.164 l 3.117,2.411 z m 109.261,16.364 -0.327,0.685 -11.96,6.738 h -0.893 C 254.801,92.625 244.031,84.533 233.082,78.151 l 3.332,-2.931 c 14.549,3.793 28.264,10.339 40.73,19.294 m -47.691,-21.02 v 0.343 c -15.084,11.037 -39.54,12.063 -55.486,1.904 l -2.774,-2.247 c 18.386,-4.313 40.052,-4.656 58.26,0 m -17.851,-7.75 c -4.7,-0.521 -10.412,-0.684 -15.448,-0.179 -1.904,-0.163 -4.157,0 -6.411,0.179 -41.629,3.272 -79.956,24.812 -103.884,61.525 1.733,-0.178 3.809,0.506 5.541,-0.178 4.166,-5.846 8.852,-11.543 14.05,-17.062 4.507,-4.314 8.68,-8.434 13.537,-11.543 4.515,2.931 9.535,5.34 13.864,8.092 -5.378,6.724 -10.919,13.448 -14.913,20.692 1.22,0.506 3.474,0.342 5.207,0 4.328,-6.381 9.021,-12.763 14.563,-18.445 7.467,2.752 14.749,5.682 22.38,7.75 l 0.684,0.685 -4.329,10.011 c 1.904,0.342 3.124,0.164 5.028,0 1.569,-2.945 2.774,-6.218 4.507,-9.134 10.056,2.231 20.64,3.437 31.395,3.794 1.383,1.189 0.357,3.793 0.877,5.34 h 4.663 c 0.536,-1.74 -0.148,-3.629 0.536,-5.177 10.056,-0.521 20.617,-1.562 30.347,-3.957 l 0.862,0.164 4.671,8.97 c 1.577,0 3.659,0.342 4.879,-0.357 l -4.344,-9.981 0.357,-0.357 c 7.974,-2.068 15.441,-5.162 23.057,-8.271 5.386,5.683 10.413,12.421 14.936,18.966 1.904,0 3.809,0.164 5.177,-0.357 -2.083,-3.793 -4.671,-7.572 -7.438,-10.859 -2.262,-3.273 -4.701,-6.188 -7.646,-9.297 v -0.863 l 12.139,-7.066 1.755,-0.684 c 10.562,8.092 19.934,17.91 27.371,28.769 2.083,0 3.838,0.699 5.564,-0.164 C 291.9,91.598 253.581,69.017 212.107,65.744 l -0.178,0.342 -0.327,-0.342 z M 7.635,23.527 H 394.393 V 376.793 H 7.635 V 23.527 z"
       id="path7"
       style="fill:#006bb6" /></g></svg>