<?xml version="1.0" encoding="UTF-8" standalone="no"?>
<!-- Created with Inkscape (http://www.inkscape.org/) -->

<svg
   xmlns:dc="http://purl.org/dc/elements/1.1/"
   xmlns:cc="http://creativecommons.org/ns#"
   xmlns:rdf="http://www.w3.org/1999/02/22-rdf-syntax-ns#"
   xmlns:svg="http://www.w3.org/2000/svg"
   xmlns="http://www.w3.org/2000/svg"
   version="1.0"
   width="188.62222"
   height="100"
   viewBox="0 0 1334.1879 703.125"
   id="svg2">
  <metadata
     id="metadata55">
    <rdf:RDF>
      <cc:Work
         rdf:about="">
        <dc:format>image/svg+xml</dc:format>
        <dc:type
           rdf:resource="http://purl.org/dc/dcmitype/StillImage" />
        <dc:title></dc:title>
      </cc:Work>
    </rdf:RDF>
  </metadata>
  <defs
     id="defs53" />
  <g
     transform="translate(0,-421.03333)"
     id="#ffffffff" />
  <g
     transform="matrix(0.62874074,0,0,0.62874074,0,-3.3666667)"
     id="#bbbcc1ff">
    <path
       d="m 690.12,0 0.52,0 c 47.99,47.98 96.1,95.85 143.9,144.02 -21.46,22.05 -43.5,43.56 -65.18,65.41 -26.14,26.16 -52.29,52.3 -78.44,78.43 -0.66,-0.73 -1.47,-1.16 -2.42,-1.3 -5.52,-4.83 -10.43,-10.33 -15.71,-15.41 -41.99,-42.02 -84.02,-84 -126.01,-126.02 -1.19,-0.87 -0.22,-2.02 0.53,-2.74 C 584.75,105.14 622.02,67.7 659.38,30.38 669.97,20.62 679.92,10.16 690.12,0 z"
       id="path6"
       style="fill:#bbbcc1" />
    <path
       d="m 1029.46,0 0.42,0 c 34.23,33.45 67.82,67.58 101.74,101.36 13.46,13.68 27.43,26.89 40.54,40.9 -48.01,48.05 -96.08,96.04 -144.07,144.12 -1.88,-1.62 -3.72,-3.29 -5.44,-5.08 -45.16,-44.8 -89.95,-89.99 -135.06,-134.86 -0.65,-0.85 -2.37,-1.91 -1.33,-3.11 C 933.93,95.51 981.85,47.89 1029.46,0 z"
       id="path8"
       style="fill:#bbbcc1" />
    <path
       d="m 1369.18,0 0.52,0 c 40.66,40.75 81.44,81.38 122.13,122.1 6.79,7.04 14.16,13.56 20.52,21 -47.3,47.35 -94.76,94.55 -141.91,142.05 -11.62,-10.87 -22.58,-22.47 -33.94,-33.62 -36.28,-36.29 -72.58,-72.55 -108.84,-108.87 0.89,-2.84 3.48,-4.53 5.44,-6.61 C 1278.46,90.69 1323.81,45.33 1369.18,0 z"
       id="path10"
       style="fill:#bbbcc1" />
    <path
       d="m 178.61,169.57 c 0.95,-1.4 2.29,0.04 3.07,0.77 30.68,30.96 61.73,61.56 92.53,92.39 9.9,10.16 20.31,19.83 29.92,30.25 -78.38,0.03 -156.76,0.02 -235.14,0.01 -0.02,-3.64 0.17,-7.29 -0.18,-10.92 -0.5,-0.04 -1.51,-0.13 -2.01,-0.18 1.71,-2.29 3.68,-4.37 5.76,-6.32 35.37,-35.32 70.67,-70.71 106.05,-106 z"
       id="path12"
       style="fill:#bbbcc1" />
    <path
       d="m 517.75,169.75 c 0.86,-1.25 2.44,-0.69 3.2,0.33 47.34,47.4 94.76,94.71 142.07,142.12 -47.53,47.52 -95,95.09 -142.6,142.54 -48,-48.15 -96.08,-96.22 -144.21,-144.23 0.51,-0.3 1.52,-0.9 2.03,-1.2 46.47,-46.55 93.05,-93.01 139.51,-139.56 z"
       id="path14"
       style="fill:#bbbcc1" />
    <path
       d="m 854.1,173.18 c 1.57,-1.4 2.77,-3.47 4.81,-4.2 1.97,0.96 3.28,2.86 4.87,4.34 27.5,27.46 54.97,54.96 82.46,82.44 18.63,18.84 37.68,37.28 56.05,56.37 C 954.48,359.9 906.76,407.78 858.86,455.48 833.55,430.34 808.4,405.04 783.15,379.84 760.84,357.29 738,335.3 715.73,312.73 c 0.44,-1.15 0.83,-2.36 1.81,-3.18 45.58,-45.39 90.91,-91.04 136.56,-136.37 z"
       id="path16"
       style="fill:#bbbcc1" />
    <path
       d="m 1763.05,285.09 c 38.98,-38.82 77.68,-77.96 116.82,-116.61 32.65,32.56 65.23,65.18 97.84,97.78 5.09,5.39 10.77,10.23 15.53,15.93 -2.76,0.02 -5.49,0.03 -8.21,0.01 -0.09,4.19 0.07,8.39 -0.16,12.58 -77.01,-0.23 -154.03,0.02 -231.04,-0.12 2.83,-3.41 6.11,-6.41 9.22,-9.57 z"
       id="path18"
       style="fill:#bbbcc1" />
    <path
       d="m 1197.85,173.63 c 0.84,-1.48 2.04,0 2.78,0.68 46.69,46.79 93.49,93.49 140.21,140.26 -47.15,47.69 -94.89,94.82 -142.14,142.42 -4.65,-3.5 -8.3,-8.14 -12.58,-12.07 -36.51,-36.5 -73.01,-73.01 -109.5,-109.53 -6.63,-6.85 -13.83,-13.2 -19.99,-20.48 47.06,-47.11 94.2,-94.13 141.22,-141.28 z"
       id="path20"
       style="fill:#bbbcc1" />
    <path
       d="m 1495.89,214.83 c 14.07,-13.95 27.91,-28.14 42.11,-41.95 4.39,3.55 8.07,7.99 12.21,11.87 43.37,43.35 86.69,86.73 130.08,130.05 -45.49,45.71 -91.2,91.19 -136.73,136.85 -1.91,1.97 -3.78,4.01 -6.16,5.4 -7.76,-8.36 -16.04,-16.23 -24.07,-24.32 -39.16,-39.35 -78.61,-78.42 -117.66,-117.87 33.4,-33.34 66.7,-66.8 100.22,-100.03 z"
       id="path22"
       style="fill:#bbbcc1" />
    <path
       d="m 69,331.9 c 78.42,0.03 156.83,-0.02 235.25,0.03 -1.03,1.38 -2.1,2.74 -3.32,3.96 -31.19,31.15 -62.35,62.34 -93.53,93.51 -9.38,9.18 -18.38,18.79 -28.01,27.7 -33.99,-34.21 -68.2,-68.2 -102.24,-102.36 -2.78,-2.85 -5.85,-5.46 -8.22,-8.69 0.15,-4.71 0.04,-9.43 0.07,-14.15 z"
       id="path24"
       style="fill:#bbbcc1" />
    <path
       d="m 1757.8,334.63 c 75.73,-0.03 151.47,-0.03 227.2,0 -0.01,3.78 -0.01,7.56 0,11.34 1.69,0.03 3.39,0.07 5.13,0.08 -2.17,3.16 -5.1,5.65 -7.76,8.37 -22.33,22.31 -44.64,44.65 -66.97,66.98 -12.06,11.82 -23.67,24.14 -36.01,35.66 -36.04,-36.11 -72.12,-72.17 -108.21,-108.23 -4.4,-4.79 -9.65,-8.83 -13.38,-14.2 z"
       id="path26"
       style="fill:#bbbcc1" />
    <path
       d="m 1368.58,342.08 c 0.61,-0.69 1.24,-1.37 1.9,-2.04 19.32,19.51 39.04,38.61 58.38,58.1 28.25,28.32 56.65,56.5 84.8,84.92 -6.21,7.61 -14.01,13.73 -20.78,20.83 -29.14,29.2 -58.34,58.34 -87.48,87.55 -12.19,11.89 -23.88,24.31 -36.31,35.95 -35.82,-35.66 -71.49,-71.48 -107.26,-107.2 -12.35,-12.13 -24.27,-24.7 -36.88,-36.54 6.53,-7.65 14.18,-14.29 21.11,-21.58 40.45,-40.33 80.71,-80.85 121.23,-121.1 0.32,0.27 0.96,0.83 1.29,1.11 z"
       id="path28"
       style="fill:#bbbcc1" />
    <path
       d="m 886.89,484.63 c 48.03,-47.99 96.02,-96.02 144.04,-144.02 6.95,5.83 12.97,12.7 19.51,18.99 41.21,41.19 82.41,82.4 123.61,123.6 -47.95,48.18 -96.12,96.16 -144.15,144.27 -13.17,-12.6 -25.81,-25.75 -38.78,-38.55 C 956.4,554.13 921.56,519.47 886.89,484.63 z"
       id="path30"
       style="fill:#bbbcc1" />
    <path
       d="m 547.63,484.66 c 47.52,-47.51 95,-95.04 142.55,-142.52 47.59,47.56 95.16,95.16 142.74,142.73 -39.82,39.85 -79.67,79.67 -119.5,119.52 -7.86,7.55 -15.18,15.67 -23.27,22.96 -38.77,-38.38 -77.17,-77.14 -115.82,-115.65 -8.85,-9.07 -18.15,-17.7 -26.7,-27.04 z"
       id="path32"
       style="fill:#bbbcc1" />
  </g>
  <g
     transform="matrix(0.62874074,0,0,0.62874074,0,-3.3666667)"
     id="#221e1fff">
    <path
       d="m 1199.49,114.79 c 9.65,9.01 18.72,18.64 28.17,27.87 36.26,36.32 72.56,72.58 108.84,108.87 11.36,11.15 22.32,22.75 33.94,33.62 47.15,-47.5 94.61,-94.7 141.91,-142.05 8.89,-8.78 17.58,-17.76 26.58,-26.43 59.46,59.37 118.76,118.9 178.42,178.06 12.16,-0.09 24.32,0.05 36.48,-0.07 77.01,0.14 154.03,-0.11 231.04,0.12 0.23,-4.19 0.07,-8.39 0.16,-12.58 2.72,0.02 5.45,0.01 8.21,-0.01 20.25,0.01 40.5,0.06 60.76,-0.02 0,21.28 0,42.55 0,63.83 -21.29,0.03 -42.58,-0.07 -63.87,0.05 -1.74,-0.01 -3.44,-0.05 -5.13,-0.08 -0.01,-3.78 -0.01,-7.56 0,-11.34 -75.73,-0.03 -151.47,-0.03 -227.2,0 -19.23,-0.16 -38.46,-0.04 -57.69,-0.06 -6.64,-6.56 -13.19,-13.21 -19.82,-19.77 -43.39,-43.32 -86.71,-86.7 -130.08,-130.05 -4.14,-3.88 -7.82,-8.32 -12.21,-11.87 -14.2,13.81 -28.04,28 -42.11,41.95 -33.52,33.23 -66.82,66.69 -100.22,100.03 -8.43,8.36 -16.82,16.77 -25.19,25.18 -0.66,0.67 -1.29,1.35 -1.9,2.04 -0.33,-0.28 -0.97,-0.84 -1.29,-1.11 -8.84,-8.78 -17.6,-17.64 -26.45,-26.4 -46.72,-46.77 -93.52,-93.47 -140.21,-140.26 -0.74,-0.68 -1.94,-2.16 -2.78,-0.68 -47.02,47.15 -94.16,94.17 -141.22,141.28 -8.61,8.53 -17.17,17.1 -25.7,25.7 -48.02,48 -96.01,96.03 -144.04,144.02 -9.09,8.97 -18.02,18.1 -27.14,27.04 -8.96,-8.92 -17.9,-17.86 -26.83,-26.8 -47.58,-47.57 -95.15,-95.17 -142.74,-142.73 -47.55,47.48 -95.03,95.01 -142.55,142.52 -8.84,8.63 -17.38,17.57 -26.31,26.1 C 461.73,451.2 402.06,391.71 342.64,331.99 c -12.8,-0.24 -25.6,-0.12 -38.39,-0.06 -78.42,-0.05 -156.83,0 -235.25,-0.03 -0.03,4.72 0.08,9.44 -0.07,14.15 C 45.95,345.93 22.98,346.03 0,346 l 0,-63.78 c 19.67,0 39.35,-0.02 59.02,-0.01 2.6,0.01 5.21,0.14 7.78,-0.32 0.5,0.05 1.51,0.14 2.01,0.18 0.35,3.63 0.16,7.28 0.18,10.92 78.38,0.01 156.76,0.02 235.14,-0.01 18.22,0.04 36.44,0.01 54.66,0.02 5.76,5.88 11.67,11.61 17.42,17.51 48.13,48.01 96.21,96.08 144.21,144.23 47.6,-47.45 95.07,-95.02 142.6,-142.54 8.49,-8.55 17.17,-16.92 25.48,-25.64 0.95,0.14 1.76,0.57 2.42,1.3 8.19,8.38 16.52,16.6 24.81,24.87 22.27,22.57 45.11,44.56 67.42,67.11 25.25,25.2 50.4,50.5 75.71,75.64 47.9,-47.7 95.62,-95.58 143.43,-143.35 8.63,-8.56 17.19,-17.18 25.8,-25.75 47.99,-48.08 96.06,-96.07 144.07,-144.12 9.13,-9.14 18.39,-18.15 27.33,-27.47 m -0.03,9.24 c -12.45,13 -25.46,25.46 -38.06,38.32 C 1060.48,263.1 959.82,364.12 858.8,464.77 802.35,408.23 745.76,351.84 689.37,295.24 633.03,351.38 576.83,407.66 520.63,463.95 c -17.49,-17.04 -34.56,-34.5 -51.89,-51.7 -30.16,-30.16 -60.32,-60.33 -90.49,-90.49 -7.61,-7.43 -14.88,-15.27 -22.71,-22.42 -95.47,-0.16 -190.96,0.05 -286.44,-0.11 -0.24,8.69 -0.03,17.4 -0.1,26.1 90.32,0.17 180.64,0.02 270.97,0.07 1.89,0.25 4.28,-0.69 5.86,0.68 58.54,58.53 117.06,117.08 175.61,175.59 55.95,-56.1 112.02,-112.08 168.06,-168.09 0.26,-0.07 0.78,-0.22 1.04,-0.29 33.22,33.16 66.38,66.39 99.58,99.57 23.05,23.2 46.43,46.09 69.25,69.5 2.1,-1.14 3.51,-3.15 5.26,-4.74 111.44,-111.38 222.76,-222.88 334.27,-334.19 56.64,56.4 113,113.09 169.65,169.48 15.38,-16.05 31.54,-31.35 47.16,-47.17 40.58,-40.54 81.09,-81.14 121.69,-121.65 2.32,-0.78 3.63,2.93 5.49,4.05 53.35,53.3 106.62,106.7 160.02,159.96 94.02,-0.05 188.05,0.01 282.08,-0.03 0,-9.03 0,-18.05 0.01,-27.07 -90.27,0 -180.55,0 -270.82,0 -53.64,-54.09 -107.82,-107.63 -161.65,-161.52 -4.73,-4.45 -8.97,-9.49 -13.99,-13.59 -1.94,2.58 -4.46,4.63 -6.68,6.94 -53.7,53.84 -107.63,107.45 -161.22,161.39 -1.84,-0.63 -2.93,-2.32 -4.29,-3.58 -43.5,-43.51 -87.01,-87.01 -130.51,-130.51 -12.17,-11.98 -23.98,-24.37 -36.38,-36.1 z"
       id="path35"
       style="fill:#221e1f" />
    <path
       d="m 2046.37,907.51 c 4.88,-13.35 17.62,-23.39 31.74,-25 11.04,-1.51 22.59,2.13 30.91,9.51 7.3,6.42 11.89,15.64 12.98,25.29 l 0,8.44 c -1.82,15.33 -13.22,29.11 -28.23,33.1 -15.32,4.51 -33.01,-1.4 -42.3,-14.43 -7.83,-10.39 -9.65,-24.79 -5.1,-36.91 m 30.18,-16.81 c -13.04,2.53 -23.46,14.24 -24.7,27.43 -1.68,13.91 7.4,28.06 20.62,32.55 12.29,4.66 27.22,0.31 35.17,-10.14 7.59,-9.27 8.77,-23.02 3.19,-33.57 -6.12,-12.23 -20.9,-19.39 -34.28,-16.27 z"
       id="path37"
       style="fill:#221e1f" />
    <path
       d="m 60.2,884.74 c 28.2,-0.03 56.41,-0.08 84.61,0.03 -0.09,80.08 -0.03,160.15 -0.03,240.23 l -84.57,0 c 0.03,-80.09 0.05,-160.17 -0.01,-240.26 z"
       id="path39"
       style="fill:#221e1f" />
    <path
       d="m 582.75,884.72 c 60.08,-0.01 120.17,0 180.25,-0.01 -0.06,17.02 0.11,34.05 -0.08,51.07 -31.9,-0.07 -63.8,-0.02 -95.7,-0.03 0.02,14.01 0.06,28.02 0,42.02 29.26,-0.11 58.52,-0.07 87.78,-0.02 0,16.91 0,33.82 0,50.73 -29.24,0 -58.49,0.01 -87.73,0 -0.09,15.22 0.06,30.44 -0.06,45.66 32.46,0.19 64.92,-0.06 97.37,0.12 -0.16,16.91 -0.06,33.83 -0.06,50.74 l -181.73,0 c -0.08,-80.1 0,-160.19 -0.04,-240.28 z"
       id="path41"
       style="fill:#221e1f" />
    <path
       d="m 1177.72,884.74 c 78.26,-0.05 156.52,-0.02 234.78,-0.02 -0.03,20.17 0.03,40.34 -0.03,60.51 -25.08,-0.01 -50.15,0.02 -75.23,-0.02 0,59.93 0.01,119.86 -0.01,179.79 l -84.23,0 c -0.04,-59.93 0.08,-119.86 -0.06,-179.79 -25.06,0.04 -50.11,0.02 -75.17,0.02 -0.07,-20.17 0.04,-40.33 -0.05,-60.49 z"
       id="path43"
       style="fill:#221e1f" />
    <path
       d="m 1833.75,884.72 c 58.58,0 117.17,-0.03 175.76,0.01 -0.1,17.03 0.13,34.06 -0.12,51.09 -30.4,-0.12 -60.8,-0.12 -91.2,0.01 0.09,14.37 0.07,28.74 0.02,43.12 28.59,0.11 57.19,0.02 85.79,0.05 -0.01,16.99 0,33.99 0,50.99 -28.6,0.05 -57.2,-0.06 -85.8,0.06 0.12,31.65 -0.01,63.3 0.08,94.95 l -84.53,0 c -0.01,-80.09 0.01,-160.19 0,-240.28 z"
       id="path45"
       style="fill:#221e1f" />
    <path
       d="m 2065.27,900.47 c 7.26,0.03 14.53,0.01 21.8,0.01 3.28,-0.01 6.69,1.14 9.03,3.52 3.03,3.1 3.65,7.95 2.47,12 -1.29,4.45 -5.93,7.67 -10.5,7.53 4.67,2.11 6.74,6.99 9.3,11.09 1.44,2.54 3.13,4.95 4.3,7.66 -3.56,-0.08 -7.11,-0.05 -10.65,-0.05 -3.15,-5.23 -4.98,-11.54 -9.84,-15.53 -1.96,-1.78 -4.73,-1.48 -7.14,-1.51 -0.09,5.67 -0.03,11.35 -0.04,17.03 -2.95,-0.04 -5.9,0.16 -8.81,-0.17 0.13,-13.86 -0.04,-27.72 0.08,-41.58 m 8.81,6.7 c -0.15,3.67 -0.08,7.36 -0.08,11.05 4.36,-0.32 9.02,0.8 13.17,-0.97 3.53,-1.41 3.82,-7.02 0.51,-8.84 -4.25,-2.06 -9.09,-0.83 -13.6,-1.24 z"
       id="path47"
       style="fill:#221e1f" />
  </g>
  <g
     transform="matrix(0.62874074,0,0,0.62874074,0,-3.3666667)"
     id="#fdd34fff">
    <path
       d="m 1199.46,124.03 c 12.4,11.73 24.21,24.12 36.38,36.1 43.5,43.5 87.01,87 130.51,130.51 1.36,1.26 2.45,2.95 4.29,3.58 53.59,-53.94 107.52,-107.55 161.22,-161.39 2.22,-2.31 4.74,-4.36 6.68,-6.94 5.02,4.1 9.26,9.14 13.99,13.59 53.83,53.89 108.01,107.43 161.65,161.52 90.27,0 180.55,0 270.82,0 -0.01,9.02 -0.01,18.04 -0.01,27.07 -94.03,0.04 -188.06,-0.02 -282.08,0.03 -53.4,-53.26 -106.67,-106.66 -160.02,-159.96 -1.86,-1.12 -3.17,-4.83 -5.49,-4.05 -40.6,40.51 -81.11,81.11 -121.69,121.65 -15.62,15.82 -31.78,31.12 -47.16,47.17 C 1311.9,276.52 1255.54,219.83 1198.9,163.43 1087.39,274.74 976.07,386.24 864.63,497.62 c -1.75,1.59 -3.16,3.6 -5.26,4.74 -22.82,-23.41 -46.2,-46.3 -69.25,-69.5 -33.2,-33.18 -66.36,-66.41 -99.58,-99.57 -0.26,0.07 -0.78,0.22 -1.04,0.29 C 633.46,389.59 577.39,445.57 521.44,501.67 462.89,443.16 404.37,384.61 345.83,326.08 c -1.58,-1.37 -3.97,-0.43 -5.86,-0.68 -90.33,-0.05 -180.65,0.1 -270.97,-0.07 0.07,-8.7 -0.14,-17.41 0.1,-26.1 95.48,0.16 190.97,-0.05 286.44,0.11 7.83,7.15 15.1,14.99 22.71,22.42 30.17,30.16 60.33,60.33 90.49,90.49 17.33,17.2 34.4,34.66 51.89,51.7 56.2,-56.29 112.4,-112.57 168.74,-168.71 56.39,56.6 112.98,112.99 169.43,169.53 101.02,-100.65 201.68,-201.67 302.6,-302.42 12.6,-12.86 25.61,-25.32 38.06,-38.32 z"
       id="path50"
       style="fill:#fdd34f" />
  </g>
</svg>
