<?xml version="1.0" encoding="UTF-8" standalone="no"?>
<!-- Created with Inkscape (http://www.inkscape.org/) -->

<svg
   xmlns:dc="http://purl.org/dc/elements/1.1/"
   xmlns:cc="http://creativecommons.org/ns#"
   xmlns:rdf="http://www.w3.org/1999/02/22-rdf-syntax-ns#"
   xmlns:svg="http://www.w3.org/2000/svg"
   xmlns="http://www.w3.org/2000/svg"
   xmlns:sodipodi="http://sodipodi.sourceforge.net/DTD/sodipodi-0.dtd"
   xmlns:inkscape="http://www.inkscape.org/namespaces/inkscape"
   version="1.1"
   width="188"
   height="89.529533"
   viewBox="0 0 188 89.529533"
   id="Ebene_1"
   sodipodi:docname="w3c-logo.svg"
   inkscape:version="0.92.1 r15371">
  <sodipodi:namedview
     pagecolor="#ffffff"
     bordercolor="#666666"
     borderopacity="1"
     objecttolerance="10"
     gridtolerance="10"
     guidetolerance="10"
     inkscape:pageopacity="0"
     inkscape:pageshadow="2"
     inkscape:window-width="2560"
     inkscape:window-height="1318"
     id="namedview11"
     showgrid="false"
     inkscape:zoom="4.5464983"
     inkscape:cx="8.090658"
     inkscape:cy="26.064016"
     inkscape:window-x="0"
     inkscape:window-y="48"
     inkscape:window-maximized="1"
     inkscape:current-layer="Ebene_1" />
  <title
     id="title3">W3C Logo</title>
  <desc
     id="desc5">W3C® is a trademark (registered in numerous countries) of the World Wide Web Consortium; marks of W3C are registered and held by its host institutions MIT, ERCIM, and Keio. For more information see: http://www.w3.org/</desc>
  <metadata
     id="metadata19">
    <rdf:RDF>
      <cc:Work
         rdf:about="">
        <dc:format>image/svg+xml</dc:format>
        <dc:type
           rdf:resource="http://purl.org/dc/dcmitype/StillImage" />
        <dc:title>W3C Logo</dc:title>
      </cc:Work>
    </rdf:RDF>
  </metadata>
  <defs
     id="defs17" />
  <path
     d="M 44.508132,0.499174 60.446868,54.687111 76.383723,0.499174 h 43.208967 v 5.386549 l -16.26963,28.028861 c 5.71556,1.832177 10.03798,5.168456 12.96814,10.00319 2.93205,4.837552 4.39948,10.513641 4.39948,17.034846 0,8.063842 -2.14615,14.840739 -6.43377,20.334459 -4.28763,5.49372 -9.83774,8.242456 -16.651309,8.242456 -5.130857,0 -9.598962,-1.628183 -13.407151,-4.889261 -3.811007,-3.261068 -6.63119,-7.674651 -8.462429,-13.245457 l 9.010486,-3.736741 c 1.319848,3.371057 3.060839,6.027668 5.222976,7.967012 2.161199,1.942173 4.70783,2.914195 7.637998,2.914195 3.074939,0 5.678909,-1.722191 7.803449,-5.164698 2.12641,-3.444383 3.18962,-7.582531 3.18962,-12.422905 0,-5.349889 -1.13653,-9.490858 -3.40584,-12.421029 -2.64251,-3.442503 -6.782538,-5.166575 -12.423848,-5.166575 h -4.39384 V 38.089394 L 103.763,11.488484 H 85.192099 L 84.135465,13.287763 61.54486,89.515433 H 60.445928 L 43.957258,34.342311 27.472346,89.515433 H 26.374355 L 0,0.495413 H 11.540191 L 27.477047,54.683351 38.250146,18.194881 32.975464,0.497293 h 11.537369 v -0.0038 z"
     id="path7"
     style="fill:#005a9c;stroke-width:1.72477067"
     inkscape:connector-curvature="0" />
  <path
     d="m 179.56482,0.499174 c -2.26554,0 -4.29983,0.816912 -5.84249,2.383052 -1.6357,1.662028 -2.54662,3.808188 -2.54662,6.027673 0,2.219483 0.86673,4.276338 2.4545,5.890423 1.6141,1.635703 3.69256,2.525002 5.93556,2.525002 2.19409,0 4.32429,-0.888359 5.97972,-2.498681 C 187.13326,13.284004 188,11.228089 188,8.914599 c 0,-2.243926 -0.88836,-4.345902 -2.42912,-5.912045 -1.5981,-1.640405 -3.70385,-2.50338 -5.99759,-2.50338 z m 7.31368,8.483108 c 0,1.940286 -0.7511,3.740503 -2.12454,5.06975 -1.45051,1.404452 -3.24979,2.151799 -5.23614,2.151799 -1.86696,0 -3.7123,-0.76897 -5.09326,-2.172481 -1.37718,-1.404451 -2.14992,-3.201847 -2.14992,-5.116751 0,-1.916786 0.7953,-3.785625 2.21949,-5.232382 1.33112,-1.356507 3.12853,-2.078473 5.09137,-2.078473 2.01079,0 3.80819,0.751107 5.21078,2.17248 1.36308,1.35181 2.08693,3.170826 2.08693,5.206058 z m -7.07866,-5.002066 h -3.59666 v 9.535042 h 1.79925 V 9.450435 h 1.77768 l 1.93933,4.064823 h 2.00893 l -2.12832,-4.344024 c 1.37719,-0.282957 2.17438,-1.215499 2.17438,-2.570127 0.009,-1.729712 -1.3067,-2.620891 -3.96707,-2.620891 z m -0.32902,1.169439 c 1.68177,0 2.4526,0.46815 2.4526,1.635704 0,1.119614 -0.77083,1.520078 -2.40936,1.520078 h -1.52008 V 5.149655 h 1.47589 z"
     id="path9"
     inkscape:connector-curvature="0"
     style="stroke-width:1.72477067" />
  <path
     d="m 165.4169,0 1.86884,11.365337 -6.61708,12.661684 c 0,0 -2.53911,-5.37245 -6.75998,-8.343044 -3.55437,-2.50432 -5.87162,-3.049557 -9.49462,-2.302208 -4.65236,0.959801 -9.92799,6.522143 -12.23019,13.380829 -2.7544,8.203915 -2.78165,12.176611 -2.87942,15.823108 -0.15417,5.85 0.7671,9.302845 0.7671,9.302845 0,0 -4.01876,-7.432122 -3.98022,-18.318031 0.0252,-7.772424 1.2484,-14.819123 4.8432,-21.771815 3.1633,-6.114156 7.86549,-9.784155 12.03936,-10.215642 4.31487,-0.444649 7.7226,1.633825 10.35947,3.883392 2.76472,2.365193 5.5614,7.529889 5.5614,7.529889 L 165.39998,0 Z"
     id="path11"
     inkscape:connector-curvature="0"
     style="stroke-width:1.72477067" />
  <path
     d="m 166.23475,64.307697 c 0,0 -2.92452,5.22956 -4.74636,7.24317 -1.82278,2.01643 -5.08386,5.563284 -9.11013,7.339059 -4.02628,1.773893 -6.13766,2.105733 -10.11882,1.72595 -3.97552,-0.381664 -7.6709,-2.683871 -8.96536,-3.644613 -1.29446,-0.960751 -4.60442,-3.787512 -6.47608,-6.426261 -1.8726,-2.63875 -4.79619,-7.911554 -4.79619,-7.911554 0,0 1.62818,5.285965 2.65097,7.52989 0.58566,1.292582 2.38869,5.241776 4.95036,8.678644 2.3887,3.205605 7.02695,8.726587 14.07553,9.973108 7.04858,1.248395 11.89177,-1.918664 13.0913,-2.683872 1.19669,-0.765208 3.72358,-2.882234 5.3245,-4.595964 1.66861,-1.782353 3.24979,-4.061059 4.12216,-5.426966 0.64112,-0.999293 1.68177,-3.022303 1.68177,-3.022303 l -1.68271,-8.771709 z"
     id="path13"
     inkscape:connector-curvature="0"
     style="stroke-width:1.72477067" />
</svg>
