<?xml version="1.0" encoding="UTF-8" standalone="no"?>
<!-- Generator: Adobe Illustrator 17.0.0, SVG Export Plug-In . SVG Version: 6.00 Build 0)  -->

<svg
   xmlns:dc="http://purl.org/dc/elements/1.1/"
   xmlns:cc="http://creativecommons.org/ns#"
   xmlns:rdf="http://www.w3.org/1999/02/22-rdf-syntax-ns#"
   xmlns:svg="http://www.w3.org/2000/svg"
   xmlns="http://www.w3.org/2000/svg"
   xmlns:sodipodi="http://sodipodi.sourceforge.net/DTD/sodipodi-0.dtd"
   xmlns:inkscape="http://www.inkscape.org/namespaces/inkscape"
   version="1.1"
   id="Layer_1"
   x="0px"
   y="0px"
   width="188"
   height="176.72462"
   viewBox="0 0 188 176.72463"
   enable-background="new 0 0 1766 1656"
   xml:space="preserve"
   sodipodi:docname="mlw-text-logo.svg"
   inkscape:version="0.92.1 r15371"><metadata
     id="metadata53"><rdf:RDF><cc:Work
         rdf:about=""><dc:format>image/svg+xml</dc:format><dc:type
           rdf:resource="http://purl.org/dc/dcmitype/StillImage" /></cc:Work></rdf:RDF></metadata><defs
     id="defs51" /><sodipodi:namedview
     pagecolor="#ffffff"
     bordercolor="#666666"
     borderopacity="1"
     objecttolerance="10"
     gridtolerance="10"
     guidetolerance="10"
     inkscape:pageopacity="0"
     inkscape:pageshadow="2"
     inkscape:window-width="2560"
     inkscape:window-height="1318"
     id="namedview49"
     showgrid="false"
     inkscape:zoom="3.2246802"
     inkscape:cx="-133.66278"
     inkscape:cy="83.272184"
     inkscape:window-x="0"
     inkscape:window-y="48"
     inkscape:window-maximized="1"
     inkscape:current-layer="Layer_1" /><g
     id="g46"
     transform="matrix(0.10742851,0,0,0.10742851,-0.85932065,-0.33958152)"><g
       id="XMLID_2_"><g
         id="g9"><linearGradient
           id="SVGID_1_"
           gradientUnits="userSpaceOnUse"
           x1="8.0001001"
           y1="707.37598"
           x2="1758"
           y2="707.37598"><stop
             offset="0"
             style="stop-color:#BE3210"
             id="stop2" /><stop
             offset="1"
             style="stop-color:#F3B404"
             id="stop4" /></linearGradient><path
           d="m 1758,237.889 c 0,314.29 0,628.64 0,942.93 -14.616,156.932 -123.342,220.575 -285.986,230.771 -8.014,0 -16.059,0 -24.073,0 -477.616,-2.313 -959.654,-0.335 -1438.928,-0.974 0,-34.82 0,-69.639 0,-104.459 461.772,0 933.125,0 1397.783,0 83.118,0 142.01,-8.492 184.629,-47.725 21.616,-19.936 34.635,-41.455 40.131,-75.605 5.343,-33.085 0.215,-70.278 2.026,-113.407 -38.136,59.899 -94.756,107.442 -197.679,107.442 -97.857,0 -163.258,-42.52 -190.678,-115.386 -46.794,69.852 -114.284,122.447 -231.792,114.381 -105.349,-7.244 -168.171,-63.978 -186.625,-163.111 -9.089,-48.851 -6.018,-109.755 -6.018,-168.102 0,-119.069 0,-227.454 0,-348.135 0,-61.178 -7.83,-109.938 -38.136,-136.265 -28.464,-24.745 -74.521,-27.18 -112.38,-19.906 -78.421,15.036 -118.982,65.926 -128.439,149.201 -4.759,41.82 -3.009,89.241 -3.009,135.261 0,181.464 0.829,371.48 -1.013,552.062 -40.807,0 -81.614,0 -122.421,0 0,-162.38 0,-325.551 0,-490.366 0,-80.109 5.281,-171.694 -3.009,-242.703 -4.268,-36.676 -14.401,-66.169 -38.136,-84.553 -22.691,-17.562 -59.138,-25.628 -98.317,-20.88 -70.038,8.492 -107.56,59.078 -127.456,119.342 -20.972,63.643 -16.028,146.522 -16.028,228.793 0,164.419 0,328.169 0,490.366 -41.482,0 -82.965,0 -124.447,0 0,-314.32 0,-628.64 0,-942.961 C 22.646,77.001 131.342,13.358 293.986,3.161 c 9.365,0 18.73,0 28.095,0 476.296,2.313 956.982,0.335 1434.905,0.974 0,34.82 0,69.639 0,104.459 -461.742,0 -933.124,0 -1397.783,0 -83.118,0 -142.011,8.492 -184.629,47.725 -21.616,19.906 -34.635,41.455 -40.131,75.605 -5.343,33.054 -0.215,70.278 -1.996,113.377 38.105,-59.9 94.725,-107.411 197.679,-107.411 97.826,0 163.228,42.49 190.647,115.386 43.662,-60.417 96.69,-113.012 196.665,-115.386 106.669,-2.526 169.246,35.215 204.71,109.42 32.486,67.996 23.059,189.134 23.059,289.453 0,100.593 -4.851,212.235 1.013,311.307 3.255,54.877 12.466,88.814 45.136,111.429 29.6,20.423 85.206,24.319 128.439,8.948 80.263,-28.55 107.375,-93.319 107.375,-205.905 0,-207.396 0,-416.344 0,-624.653 40.469,0 80.938,0 121.438,0 3.654,158.484 1.996,326.434 1.996,489.362 0,80.353 -5.066,171.907 3.009,242.703 4.299,37.742 13.909,65.439 38.136,84.553 22.63,17.897 57.019,26.541 97.335,21.884 69.67,-8.035 108.88,-58.134 128.439,-118.368 20.664,-63.735 16.059,-147.101 16.059,-229.767 0,-164.632 0,-328.169 0,-490.366 41.453,-10e-4 82.936,-10e-4 124.418,-10e-4 z"
           id="path7"
           style="fill:url(#SVGID_1_)"
           inkscape:connector-curvature="0" /></g><g
         id="g11" /></g><g
       id="g44"><path
         d="m 8,1461.382 h 59.187 l 22.828,87.847 22.663,-87.847 h 59.154 V 1605.76 H 134.973 V 1495.653 L 106.571,1605.76 H 73.208 L 44.86,1495.653 V 1605.76 H 8 Z"
         id="path14"
         inkscape:connector-curvature="0" /><path
         d="m 309.035,1605.76 h -37.753 v -16.943 c -5.63,6.961 -11.31,11.919 -17.039,14.873 -5.728,2.955 -12.766,4.429 -21.113,4.429 -11.127,0 -19.853,-3.299 -26.178,-9.895 -6.326,-6.599 -9.488,-16.761 -9.488,-30.482 v -66.573 h 40.635 v 57.513 c 0,6.563 1.225,11.228 3.674,13.983 2.451,2.757 5.895,4.136 10.333,4.136 4.835,0 8.793,-1.837 11.872,-5.512 3.08,-3.677 4.619,-10.276 4.619,-19.797 v -50.323 h 40.437 v 104.591 z"
         id="path16"
         inkscape:connector-curvature="0" /><path
         d="M 334.966,1461.382 H 375.5 v 144.378 h -40.534 z"
         id="path18"
         inkscape:connector-curvature="0" /><path
         d="m 450.114,1461.382 v 39.788 h 22.254 v 29.347 h -22.254 v 37.054 c 0,4.458 0.43,7.404 1.291,8.845 1.326,2.229 3.643,3.341 6.955,3.341 2.981,0 7.153,-0.849 12.517,-2.556 l 2.981,27.67 c -10,2.167 -19.339,3.248 -28.017,3.248 -10.068,0 -17.486,-1.277 -22.255,-3.834 -4.768,-2.559 -8.296,-6.444 -10.58,-11.655 -2.285,-5.214 -3.428,-13.658 -3.428,-25.328 v -36.786 h -14.903 v -29.347 h 14.903 v -19.205 z"
         id="path20"
         inkscape:connector-curvature="0" /><path
         d="m 493.133,1461.382 h 40.437 v 27.28 h -40.437 z m 0,39.789 h 40.437 v 104.59 h -40.437 z"
         id="path22"
         inkscape:connector-curvature="0" /><path
         d="m 560.792,1461.382 h 40.536 v 144.378 h -40.536 z"
         id="path24"
         inkscape:connector-curvature="0" /><path
         d="m 628.648,1461.382 h 40.435 v 27.28 h -40.435 z m 0,39.789 h 40.435 v 104.59 h -40.435 z"
         id="path26"
         inkscape:connector-curvature="0" /><path
         d="m 694.916,1501.171 h 37.654 v 17.037 c 5.63,-6.961 11.325,-11.931 17.089,-14.921 5.76,-2.987 12.783,-4.483 21.062,-4.483 11.193,0 19.955,3.3 26.279,9.898 6.324,6.599 9.488,16.794 9.488,30.579 v 66.479 h -40.634 v -57.516 c 0,-6.565 -1.226,-11.211 -3.676,-13.937 -2.453,-2.726 -5.895,-4.087 -10.333,-4.087 -4.903,0 -8.876,1.837 -11.922,5.516 -3.048,3.674 -4.571,10.272 -4.571,19.797 v 50.226 h -40.435 v -104.588 z"
         id="path28"
         inkscape:connector-curvature="0" /><path
         d="m 904.05,1501.171 h 37.854 v 98.776 l 0.099,4.631 c 0,6.566 -1.407,12.82 -4.222,18.761 -2.816,5.941 -6.558,10.75 -11.226,14.427 -4.67,3.677 -10.601,6.338 -17.786,7.978 -7.183,1.641 -15.418,2.461 -24.689,2.461 -21.193,0 -35.749,-3.15 -43.665,-9.455 -7.916,-6.305 -11.871,-14.741 -11.871,-25.309 0,-1.314 0.066,-3.085 0.198,-5.321 l 39.242,4.435 c 0.995,3.609 2.519,6.105 4.572,7.484 2.981,2.033 6.723,3.053 11.226,3.053 5.827,0 10.183,-1.542 13.064,-4.628 2.882,-3.085 4.321,-8.471 4.321,-16.152 v -15.854 c -3.973,4.661 -7.949,8.041 -11.921,10.142 -6.225,3.281 -12.948,4.926 -20.169,4.926 -14.108,0 -25.5,-6.108 -34.174,-18.319 -6.162,-8.668 -9.242,-20.123 -9.242,-34.372 0,-16.283 3.973,-28.69 11.922,-37.226 7.946,-8.537 18.345,-12.805 31.197,-12.805 8.213,0 14.986,1.38 20.318,4.138 5.331,2.758 10.315,7.32 14.951,13.69 v -15.461 z m -38.051,50.72 c 0,7.549 1.622,13.145 4.87,16.79 3.244,3.642 7.514,5.466 12.815,5.466 5.032,0 9.254,-1.89 12.666,-5.665 3.412,-3.775 5.115,-9.47 5.115,-17.085 0,-7.615 -1.787,-13.444 -5.361,-17.484 -3.581,-4.035 -7.949,-6.054 -13.116,-6.054 -5.167,0 -9.29,1.855 -12.372,5.563 -3.076,3.71 -4.617,9.866 -4.617,18.469 z"
         id="path30"
         inkscape:connector-curvature="0" /><path
         d="m 1077.519,1605.76 h -37.755 v -16.943 c -5.632,6.961 -11.311,11.919 -17.039,14.873 -5.729,2.955 -12.767,4.429 -21.111,4.429 -11.128,0 -19.854,-3.299 -26.181,-9.895 -6.323,-6.599 -9.487,-16.761 -9.487,-30.482 v -66.573 h 40.636 v 57.513 c 0,6.563 1.223,11.228 3.676,13.983 2.45,2.757 5.896,4.136 10.333,4.136 4.834,0 8.792,-1.837 11.871,-5.512 3.08,-3.677 4.621,-10.276 4.621,-19.797 v -50.323 h 40.435 v 104.591 z"
         id="path32"
         inkscape:connector-curvature="0" /><path
         d="m 1138.92,1535.049 -38.652,-4.04 c 1.457,-6.697 3.562,-11.963 6.309,-15.803 2.75,-3.844 6.708,-7.175 11.874,-9.999 3.709,-2.033 8.81,-3.608 15.298,-4.726 6.493,-1.117 13.511,-1.677 21.062,-1.677 12.124,0 21.859,0.676 29.212,2.022 7.352,1.347 13.479,4.153 18.381,8.421 3.442,2.954 6.159,7.139 8.144,12.557 1.988,5.416 2.98,10.585 2.98,15.511 v 46.191 c 0,4.921 0.318,8.779 0.945,11.567 0.629,2.794 2.006,6.355 4.124,10.689 h -37.95 c -1.526,-2.693 -2.519,-4.744 -2.98,-6.159 -0.468,-1.409 -0.93,-3.626 -1.392,-6.646 -5.301,5.056 -10.566,8.667 -15.798,10.834 -7.152,2.889 -15.464,4.33 -24.935,4.33 -12.586,0 -22.139,-2.886 -28.664,-8.664 -6.524,-5.778 -9.787,-12.902 -9.787,-21.371 0,-7.945 2.352,-14.478 7.053,-19.597 4.705,-5.125 13.379,-8.929 26.033,-11.425 15.167,-3.02 25.001,-5.136 29.506,-6.352 4.504,-1.215 9.271,-2.809 14.308,-4.777 0,-4.926 -1.028,-8.37 -3.083,-10.34 -2.051,-1.971 -5.661,-2.955 -10.83,-2.955 -6.621,0 -11.589,1.049 -14.902,3.15 -2.583,1.644 -4.668,4.728 -6.256,9.259 z m 35.07,21.074 c -5.566,1.971 -11.361,3.709 -17.388,5.219 -8.213,2.166 -13.412,4.301 -15.599,6.402 -2.251,2.168 -3.379,4.628 -3.379,7.386 0,3.151 1.11,5.728 3.328,7.732 2.219,2.003 5.482,3.002 9.788,3.002 4.504,0 8.695,-1.082 12.57,-3.25 3.874,-2.166 6.621,-4.808 8.246,-7.927 1.621,-3.121 2.435,-7.176 2.435,-12.163 v -6.401 z"
         id="path34"
         inkscape:connector-curvature="0" /><path
         d="m 1239.164,1461.382 h 40.534 v 144.378 h -40.534 z"
         id="path36"
         inkscape:connector-curvature="0" /><path
         d="m 1293.212,1461.382 h 42.748 l 15.388,80.824 22.525,-80.824 h 42.59 l 22.586,80.717 15.406,-80.717 h 42.525 l -32.109,144.378 h -44.132 l -25.545,-90.9 -25.448,90.9 h -44.133 z"
         id="path38"
         inkscape:connector-curvature="0"
         style="fill:#be3210" /><path
         d="M 1620.871,1563.41 H 1539.8 c 0.731,6.436 2.483,11.23 5.266,14.38 3.911,4.53 9.007,6.795 15.302,6.795 3.973,0 7.751,-0.986 11.325,-2.954 2.187,-1.248 4.537,-3.448 7.052,-6.599 l 39.843,3.645 c -6.094,10.504 -13.446,18.039 -22.054,22.601 -8.612,4.562 -20.966,6.843 -37.063,6.843 -13.973,0 -24.969,-1.95 -32.983,-5.858 -8.012,-3.906 -14.654,-10.109 -19.919,-18.613 -5.266,-8.505 -7.899,-18.497 -7.899,-29.988 0,-16.348 5.281,-29.578 15.848,-39.689 10.564,-10.109 25.152,-15.169 43.763,-15.169 15.104,0 27.026,2.268 35.767,6.798 8.744,4.53 15.4,11.095 19.969,19.698 4.571,8.599 6.855,19.796 6.855,33.581 v 4.529 z m -41.131,-19.203 c -0.794,-7.75 -2.896,-13.296 -6.309,-16.643 -3.412,-3.35 -7.898,-5.023 -13.464,-5.023 -6.423,0 -11.556,2.526 -15.4,7.582 -2.447,3.153 -4.006,7.844 -4.666,14.084 z"
         id="path40"
         inkscape:connector-curvature="0"
         style="fill:#be3210" /><path
         d="m 1637.659,1461.382 h 40.835 v 50.031 c 4.042,-4.203 8.63,-7.354 13.763,-9.456 5.133,-2.101 10.813,-3.154 17.037,-3.154 12.849,0 23.479,4.584 31.892,13.742 8.412,9.158 12.618,22.307 12.618,39.44 0,11.425 -1.922,21.487 -5.762,30.187 -3.845,8.701 -9.159,15.201 -15.947,19.499 -6.789,4.301 -14.324,6.45 -22.603,6.45 -7.088,0 -13.578,-1.51 -19.473,-4.53 -4.438,-2.36 -9.271,-6.794 -14.507,-13.292 v 15.463 h -37.854 v -144.38 z m 40.538,91.786 c 0,8.994 1.706,15.513 5.118,19.549 3.409,4.04 7.729,6.058 12.966,6.058 4.833,0 8.891,-1.985 12.168,-5.959 3.279,-3.972 4.918,-10.653 4.918,-20.04 0,-8.275 -1.608,-14.345 -4.816,-18.221 -3.214,-3.874 -7.107,-5.811 -11.676,-5.811 -5.497,0 -9.985,2.019 -13.464,6.057 -3.474,4.04 -5.214,10.16 -5.214,18.367 z"
         id="path42"
         inkscape:connector-curvature="0"
         style="fill:#be3210" /></g></g></svg>